# xmcd
#
# Track frame offsets: 
#        150
#        14252
#        27670
#        41115
#        51440
#        63478
#        75172
#        89111
#        100527
#        113690
#        127198
#        138717
#        153197
#        167548
#        179943
#        191251
#        205062
#        219385
#        229921
#        240092
#        252675
#        263370
#        277171
#        291244
#        301857
#        311240
#        323891
#        336417
#
# Disc length: 4648 seconds
#
# Revision: 1
# Processed by: cddbd v1.5.2PL0 Copyright (c) Steve Scherf et al.
# Submitted via: ExactAudioCopyFreeDBPlugin 1.0
#
DISCID=a012261c
DTITLE=Various Artist - Big Walter Horton In Session: From Memphis To
DTITLE=Chicago 1951-1956
DYEAR=2019
DGENRE=Blues
TTITLE0=Mumbles - Now Tell Me Baby
TTITLE1=Mumbles - Little Boy Blue
TTITLE2=Mumbles - Black Gal
TTITLE3=Mumbles - Jumpin' Blues
TTITLE4=Willie Nix - Truckin' Little Woman
TTITLE5=Walter Horton - Little Walter's Boogie
TTITLE6=Walter Horton - West Winds Are Blowing
TTITLE7=Johnny Shines - Evening Sun
TTITLE8=Johnny Shines - Brutal Hearted Woman
TTITLE9=Jimmy and Walter - Easy
TTITLE10=Joe Hill Louis - Hydramatic Woman
TTITLE11=Joe Hill Louis - Tiger Man
TTITLE12=Tampa Red - Big Stars Falling Blues
TTITLE13=Tampa Red - Rambler's Blues
TTITLE14=Tampa Red - Evalena
TTITLE15=Big Walter and His Combo - Hard-Hearted Woman
TTITLE16=Big Walter and His Combo - Back Home To Mama
TTITLE17=Shakey Horton - Have A Good Time
TTITLE18=Shakey Horton - Need My Baby
TTITLE19=Arbee Stidham - When I Find My Baby
TTITLE20=Sunnyland Slim - It's You Baby
TTITLE21=Sunnyland Slim - Highway 61
TTITLE22=Otis Rush - I Can't Quit You Baby
TTITLE23=Otis Rush - Sit Down Baby
TTITLE24=Jimmy Rogers - If It Ain't Me (Who You Thinking Of)
TTITLE25=Jimmy Rogers - Walking By Myself
TTITLE26=Jimmy Rogers - I Can't Believe
TTITLE27=Jimmy Rogers - One Kiss
EXTD=
EXTT0=
EXTT1=
EXTT2=
EXTT3=
EXTT4=
EXTT5=
EXTT6=
EXTT7=
EXTT8=
EXTT9=
EXTT10=
EXTT11=
EXTT12=
EXTT13=
EXTT14=
EXTT15=
EXTT16=
EXTT17=
EXTT18=
EXTT19=
EXTT20=
EXTT21=
EXTT22=
EXTT23=
EXTT24=
EXTT25=
EXTT26=
EXTT27=
PLAYORDER=
